<svg width="25" height="23" viewBox="0 0 25 23" fill="none" xmlns="http://www.w3.org/2000/svg">
<path d="M24.1525 7.05864C24.6206 7.05864 25 6.6792 25 6.21113V3.75391C25 3.28584 24.6206 2.9064 24.1525 2.9064H22.7826V0.84751C22.7826 0.379443 22.4031 0 21.9351 0H17.8622C17.3941 0 17.0146 0.379443 17.0146 0.84751V2.9064H8.09839V0.84751C8.09839 0.379443 7.71895 0 7.25088 0H3.17798C2.70991 0 2.33047 0.379443 2.33047 0.84751V2.9064H0.847461C0.379443 2.9064 0 3.28584 0 3.75391V6.21113C0 6.6792 0.379443 7.05864 0.84751 7.05864H2.50005V18.514C1.06553 18.8743 0 20.1745 0 21.7192C0 22.1873 0.379443 22.5667 0.84751 22.5667H24.1525C24.6206 22.5667 25 22.1873 25 21.7192C25 20.1745 23.9346 18.8743 22.5 18.514V7.05864H24.1525ZM8.56699 9.51592H5.08731C4.61924 9.51592 4.2398 9.13647 4.2398 8.66841C4.2398 8.20034 4.61924 7.8209 5.08731 7.8209H8.56699C9.03506 7.8209 9.4145 8.20034 9.4145 8.66841C9.4145 9.13647 9.03506 9.51592 8.56699 9.51592ZM19.9794 9.51592H19.0872V10.4083C19.0872 10.8763 18.7077 11.2558 18.2396 11.2558C17.7716 11.2558 17.3921 10.8763 17.3921 10.4083V9.51592H16.4998C16.0317 9.51592 15.6522 9.13647 15.6522 8.66841C15.6522 8.20034 16.0317 7.8209 16.4998 7.8209H17.3921V6.92852C17.3921 6.46045 17.7716 6.08101 18.2396 6.08101C18.7077 6.08101 19.0872 6.46045 19.0872 6.92852V7.8209H19.9795C20.4476 7.8209 20.827 8.20034 20.827 8.66841C20.827 9.13647 20.4475 9.51592 19.9794 9.51592Z" fill="black"/>
</svg>
