<svg width="12" height="12" viewBox="0 0 12 12" fill="none" xmlns="http://www.w3.org/2000/svg">
<path d="M11.5 5.90039V10.2002C11.4999 10.9439 10.9439 11.4999 10.2002 11.5H1.7998C1.05611 11.4999 0.500097 10.9439 0.5 10.2002V5.90039H11.5ZM8.40039 0.5C8.43422 0.500042 8.45504 0.505663 8.46582 0.509766C8.4761 0.513721 8.48024 0.517351 8.48145 0.518555C8.48265 0.519759 8.48628 0.523895 8.49023 0.53418C8.49434 0.544958 8.49996 0.565783 8.5 0.599609V1.7002H10.2002C10.944 1.70029 11.5 2.25621 11.5 3V3.7002H0.5V3C0.5 2.25621 1.05604 1.70029 1.7998 1.7002H3.5V0.599609C3.50004 0.565783 3.50566 0.544958 3.50977 0.53418C3.51372 0.523895 3.51735 0.519759 3.51855 0.518555C3.51976 0.51735 3.5239 0.513721 3.53418 0.509766C3.54496 0.505663 3.56578 0.500042 3.59961 0.5C3.63385 0.5 3.65525 0.505641 3.66602 0.509766C3.6763 0.513721 3.68044 0.517351 3.68164 0.518555C3.68293 0.519861 3.68657 0.524157 3.69043 0.53418C3.69453 0.544977 3.70015 0.56585 3.7002 0.599609V1.7002H8.2998V0.599609C8.29985 0.56585 8.30547 0.544977 8.30957 0.53418C8.31342 0.524158 8.31707 0.519861 8.31836 0.518555C8.31956 0.517351 8.3237 0.513721 8.33398 0.509766C8.34475 0.505641 8.36615 0.5 8.40039 0.5Z" stroke="#808080"/>
</svg>
