<svg width="30" height="30" viewBox="0 0 30 30" fill="none" xmlns="http://www.w3.org/2000/svg">
<path fill-rule="evenodd" clip-rule="evenodd" d="M2.50217 12.5H27.4979C27.4827 9.78121 27.3621 8.30883 26.4016 7.34835C25.3032 6.25 23.5355 6.25 20 6.25H10C6.46446 6.25 4.6967 6.25 3.59835 7.34835C2.63787 8.30883 2.5173 9.78121 2.50217 12.5ZM27.5 15H2.5V17.5C2.5 21.0355 2.5 22.8032 3.59835 23.9016C4.6967 25 6.46446 25 10 25H20C23.5355 25 25.3032 25 26.4016 23.9016C27.5 22.8032 27.5 21.0355 27.5 17.5V15ZM8.75 18.75C8.05965 18.75 7.5 19.3096 7.5 20C7.5 20.6904 8.05965 21.25 8.75 21.25H8.7625C9.45285 21.25 10.0125 20.6904 10.0125 20C10.0125 19.3096 9.45285 18.75 8.7625 18.75H8.75Z" fill="#222222"/>
</svg>
