<svg width="25" height="31" viewBox="0 0 25 31" fill="none" xmlns="http://www.w3.org/2000/svg">
<path d="M24.7118 14.8995L22.5315 12.7298C22.347 12.5462 22.0967 12.443 21.8357 12.443C21.5748 12.443 21.3244 12.5461 21.14 12.7298L20.5923 13.2749L15.914 8.61945V6.60954C15.914 6.06875 15.4734 5.63028 14.9299 5.63028H14.6159V4.16704H15.2048C15.5151 4.16704 15.8073 4.02139 15.9931 3.77395C16.1788 3.5265 16.2365 3.20644 16.1484 2.91027L15.4924 0.701767C15.3687 0.285544 14.9846 0 14.5486 0H10.4564C10.0203 0 9.63623 0.285544 9.51264 0.701649L8.85662 2.91015C8.76866 3.20632 8.82624 3.52644 9.01195 3.77383C9.19773 4.02127 9.48993 4.16692 9.8003 4.16692H10.3892V5.63022H10.1408C9.5973 5.63022 9.15667 6.06869 9.15667 6.60949V8.55405L4.41039 13.2771L3.86021 12.7297C3.47598 12.3473 2.85288 12.3473 2.46853 12.7297L0.288217 14.8993C-0.0960724 15.2817 -0.0960724 15.9017 0.288217 16.2842L0.844829 16.8381C0.46054 17.2204 0.46054 17.8405 0.844829 18.2229C1.03697 18.4141 1.28882 18.5098 1.54061 18.5098C1.7924 18.5098 2.0443 18.4141 2.23639 18.2229L3.18738 19.1693C2.80309 19.5516 2.80309 20.1716 3.18738 20.5541C3.37952 20.7453 3.63137 20.841 3.88316 20.841C4.13495 20.841 4.38685 20.7453 4.57894 20.5541L5.52993 21.5005C5.14564 21.8828 5.14564 22.5028 5.52993 22.8853C5.72207 23.0765 5.97392 23.1721 6.22571 23.1721C6.4775 23.1721 6.7294 23.0765 6.92149 22.8853L7.41781 23.3792V29.0779C7.41781 29.6187 7.85838 30.0572 8.40189 30.0572H16.6026C17.146 30.0572 17.5867 29.6187 17.5867 29.0779V23.3743L18.0782 22.8853C18.2703 23.0765 18.5221 23.1721 18.7739 23.1721C19.0257 23.1721 19.2776 23.0765 19.4697 22.8853C19.854 22.5029 19.854 21.8829 19.4697 21.5004L20.4207 20.5541C20.6128 20.7453 20.8647 20.8409 21.1165 20.8409C21.3683 20.8409 21.6202 20.7453 21.8123 20.5541C22.1966 20.1717 22.1966 19.5517 21.8123 19.1692L22.7633 18.2229C22.9554 18.4141 23.2072 18.5097 23.459 18.5097C23.7108 18.5097 23.9627 18.4141 24.1548 18.2229C24.5391 17.8405 24.5391 17.2205 24.1548 16.838L24.7114 16.2841C25.0961 15.9019 25.0961 15.2818 24.7118 14.8995ZM12.5353 22.6938C11.271 22.6938 10.246 21.6739 10.246 20.4157C10.246 19.1576 11.2709 18.1376 12.5353 18.1376C13.7996 18.1376 14.8246 19.1575 14.8246 20.4157C14.8246 21.6738 13.7996 22.6938 12.5353 22.6938ZM18.2406 15.6149C17.8564 15.2325 17.2333 15.2325 16.8489 15.6149C16.4647 15.9972 16.4647 16.6173 16.8489 16.9997L16.4597 17.3871C15.5269 16.2368 14.0999 15.4992 12.5024 15.4992C10.9037 15.4992 9.47577 16.238 8.54301 17.3898L8.15111 16.9998C8.5354 16.6174 8.5354 15.9974 8.15111 15.6149C7.76688 15.2326 7.14378 15.2326 6.75943 15.6149L5.80844 14.6686C5.83894 14.6382 5.8662 14.6059 5.8918 14.5727L10.2611 10.2248H14.7437L19.0948 14.5546C19.1241 14.5942 19.1556 14.6327 19.1915 14.6685L18.2406 15.6149Z" fill="#0F0F0F"/>
</svg>
