<svg width="25" height="25" viewBox="0 0 25 25" fill="none" xmlns="http://www.w3.org/2000/svg">
<path d="M19.8008 12.5H22" stroke="#0F0F0F" stroke-width="1.5"/>
<path d="M3 12.5H15.1133" stroke="#0F0F0F" stroke-width="1.5"/>
<path d="M10.3672 6.23828H22" stroke="#0F0F0F" stroke-width="1.5"/>
<path d="M3 6.23828H5.6875" stroke="#0F0F0F" stroke-width="1.5"/>
<path d="M13.6719 18.7617H22" stroke="#0F0F0F" stroke-width="1.5"/>
<path d="M3 18.7617H8.98437" stroke="#0F0F0F" stroke-width="1.5"/>
<path d="M8.02734 8.46094C9.32176 8.46094 10.3711 7.4116 10.3711 6.11719C10.3711 4.82277 9.32176 3.77344 8.02734 3.77344C6.73293 3.77344 5.68359 4.82277 5.68359 6.11719C5.68359 7.4116 6.73293 8.46094 8.02734 8.46094Z" stroke="#0F0F0F" stroke-width="1.5"/>
<path d="M17.457 14.8438C18.7514 14.8438 19.8008 13.7944 19.8008 12.5C19.8008 11.2056 18.7514 10.1562 17.457 10.1562C16.1626 10.1562 15.1133 11.2056 15.1133 12.5C15.1133 13.7944 16.1626 14.8438 17.457 14.8438Z" stroke="#0F0F0F" stroke-width="1.5"/>
<path d="M11.3281 21.1055C12.6225 21.1055 13.6719 20.0561 13.6719 18.7617C13.6719 17.4673 12.6225 16.418 11.3281 16.418C10.0337 16.418 8.98438 17.4673 8.98438 18.7617C8.98438 20.0561 10.0337 21.1055 11.3281 21.1055Z" stroke="#0F0F0F" stroke-width="1.5"/>
</svg>
