<svg width="22" height="22" viewBox="0 0 22 22" fill="none" xmlns="http://www.w3.org/2000/svg">
<g clip-path="url(#clip0_1397_426)">
<path d="M16.227 13.5205H14.6271V11.9411C14.9975 11.4812 15.3071 10.9745 15.5602 10.466C15.6593 10.4483 15.765 10.4157 15.8636 10.3686C16.3163 10.1523 16.7301 9.62526 16.9654 8.95858C17.2364 8.19041 17.2056 7.46328 16.9052 7.01629C16.9453 6.18647 16.9203 3.79281 15.4664 2.17096C14.5534 1.15258 13.2666 0.636235 11.6408 0.636235L11.5821 0.636457C11.0955 0.640162 10.6365 0.682542 10.2047 0.75967C9.61451 0.219399 8.8779 -0.0468106 8.11491 0.00675721C7.4489 0.0543237 6.78579 0.345131 6.22077 0.832205C5.83394 0.799754 4.11377 0.728626 2.91083 1.79302C2.10812 2.50325 1.66113 3.54075 1.66113 4.87691V11.9468C1.66113 12.1157 1.77523 12.276 1.90371 12.3856C1.94994 12.4249 2.72456 13.0503 3.93825 13.0503C4.53712 13.0503 5.24625 12.898 6.03873 12.448C6.21899 12.3457 6.32887 12.1542 6.32887 11.9468V9.61881C6.40296 9.79063 6.57078 9.94422 6.7014 10.0704C6.9336 10.2947 7.18366 10.4303 7.43749 10.4695C7.70274 11.0021 8.03296 11.5324 8.40342 12.0086V13.5205H6.77467C4.44073 13.5205 2.66329 17.5355 2.66329 19.5347C2.66329 19.7582 2.79243 19.9716 2.99485 20.0665C6.13142 21.5389 9.08883 22.0002 11.5499 22.0001C12.8453 22.0001 14.0034 21.8761 14.9772 21.705C18.044 21.1659 19.9643 20.1011 20.0445 20.056C20.2261 19.9539 20.3384 19.7425 20.3384 19.5341C20.3383 17.5349 18.5609 13.5205 16.227 13.5205ZM13.9522 14.7038C13.9522 16.0387 12.8766 17.1341 11.5418 17.1341C10.207 17.1341 9.09409 16.0335 9.09409 14.6988C9.35104 14.6408 9.51478 14.4115 9.51478 14.137V13.1291C10.1075 13.5464 10.7505 13.8064 11.4517 13.8064C12.1741 13.8064 12.8489 13.5308 13.4416 13.0911V14.137C13.4416 14.4204 13.6826 14.6556 13.9522 14.7038ZM11.591 1.78909L11.6411 1.78887C12.9233 1.78887 13.9206 2.17503 14.6054 2.93639C15.6331 4.07939 15.7653 5.81461 15.7615 6.67021C12.7084 6.63242 11.1006 5.95923 10.2847 5.39192C9.46092 4.81904 9.28881 4.26373 9.27013 4.19468C9.22264 3.89957 8.95747 3.70146 8.66022 3.72383C8.35941 3.74643 8.12898 4.0093 8.12898 4.31093C8.12898 4.84223 7.73534 5.60559 7.29435 6.26434C7.13654 5.09674 7.33851 4.07695 7.89056 3.32159C8.61361 2.33203 9.89332 1.80213 11.591 1.78909ZM8.73283 1.21274C8.00777 1.5483 7.40956 2.02611 6.95975 2.64143C6.67695 3.02849 6.46297 3.46207 6.31775 3.93284C6.08955 3.22209 6.25641 2.41101 6.8195 1.84785C7.33169 1.33558 8.04889 1.02203 8.73283 1.21274ZM2.84659 11.6373V4.87691C2.84659 3.88831 3.14466 3.14288 3.68589 2.66092C4.17593 2.22445 4.82541 2.05863 5.32782 2.0001C5.1483 2.40457 5.03094 2.84556 5.03102 3.30136C5.03102 3.61877 5.06932 3.92899 5.14341 4.22469V11.5963C4.03205 12.1194 3.21704 11.8309 2.84659 11.6373ZM8.32799 9.61762C8.28013 9.45892 8.13173 9.35075 7.97347 9.30118C7.84988 9.26243 7.71808 9.26673 7.59849 9.31148C7.49506 9.24228 7.27368 9.01045 7.12009 8.57516C7.06681 8.42409 7.03555 8.28732 7.01866 8.16766C7.17677 8.16366 7.32865 8.09528 7.43601 7.97399C7.56848 7.82425 8.42261 6.83684 8.92124 5.73177C9.83982 6.68821 11.8103 7.81714 15.9935 7.82418C16.0103 7.98407 15.9975 8.2462 15.8814 8.57502C15.7264 9.01423 15.5027 9.24628 15.4005 9.31326C15.2814 9.27421 15.152 9.27458 15.0318 9.31622C14.881 9.36838 14.7586 9.48085 14.6937 9.62674C14.0732 11.0231 12.8677 12.6509 11.5126 12.6536C10.1816 12.6561 8.82944 11.2793 8.32799 9.61762ZM14.7775 20.5721C12.1868 21.0276 8.21315 21.1427 3.83696 19.1906C4.02716 17.455 5.47749 14.706 6.7746 14.706H7.97858C7.97858 16.6323 9.58161 18.2794 11.552 18.2794C13.5224 18.2794 15.1254 16.6323 15.1254 14.706H16.2268C17.5282 14.706 18.9836 17.4728 19.1663 19.2075C18.5307 19.5126 16.9616 20.188 14.7775 20.5721Z" fill="black"/>
<path d="M15.4201 17.4473C15.1017 17.4473 14.8438 17.7216 14.8438 18.04C14.8438 18.3584 15.1017 18.6327 15.4201 18.6327H17.0339C17.3523 18.6327 17.6102 18.3584 17.6102 18.04C17.6102 17.7216 17.3523 17.4473 17.0339 17.4473H15.4201Z" fill="black"/>
</g>
<defs>
<clipPath id="clip0_1397_426">
<rect width="22" height="22" fill="white"/>
</clipPath>
</defs>
</svg>
