<svg width="22" height="22" viewBox="0 0 22 22" fill="none" xmlns="http://www.w3.org/2000/svg">
<g clip-path="url(#clip0_1397_450)">
<path d="M20.2762 7.78671C19.0378 3.18353 15.2771 0 11 0C6.73588 0 2.96094 3.18871 1.72376 7.78671C0.757059 7.89282 0 8.70812 0 9.70588V14.8824C0 15.6912 0.494353 16.3835 1.19576 16.6747C1.44682 18.9355 3.34788 20.7059 5.67471 20.7059H9.17788C9.44577 21.4578 10.1575 22 11 22H14.8824C15.9526 22 16.8235 21.1291 16.8235 20.0588C16.8235 18.9886 15.9526 18.1176 14.8824 18.1176H11C10.1575 18.1176 9.44577 18.6599 9.17788 19.4118H5.67471C4.11141 19.4118 2.80565 18.2988 2.50541 16.8235H3.88235V15.5294H5.17647V9.05882H3.88235V7.76471H3.09812C4.27965 3.93282 7.436 1.29412 11 1.29412C14.5744 1.29412 17.7204 3.93024 18.9019 7.76471H18.1176V9.05882H16.8235V15.5294H18.1176V16.8235H20.0666C21.1329 16.8235 22 15.9526 22 14.8824V9.70588C22 8.70812 21.2429 7.89282 20.2762 7.78671ZM11 19.4118H14.8824C15.2382 19.4118 15.5294 19.7016 15.5294 20.0588C15.5294 20.416 15.2382 20.7059 14.8824 20.7059H11C10.6441 20.7059 10.3529 20.416 10.3529 20.0588C10.3529 19.7016 10.6441 19.4118 11 19.4118ZM2.58824 15.5294H1.93341C1.58141 15.5294 1.29412 15.2395 1.29412 14.8824V9.70588C1.29412 9.34871 1.58141 9.05882 1.93341 9.05882H2.58824V15.5294ZM20.7059 14.8824C20.7059 15.2395 20.4186 15.5294 20.0666 15.5294H19.4118V9.05882H20.0666C20.4186 9.05882 20.7059 9.34871 20.7059 9.70588V14.8824Z" fill="black"/>
</g>
<defs>
<clipPath id="clip0_1397_450">
<rect width="22" height="22" fill="white"/>
</clipPath>
</defs>
</svg>
