<svg width="22" height="22" viewBox="0 0 22 22" fill="none" xmlns="http://www.w3.org/2000/svg">
<path d="M11 7.33325V10.9999L13.2917 13.2916" fill="black"/>
<path d="M11 7.33325V10.9999L13.2917 13.2916" stroke="black" stroke-width="1.5" stroke-linecap="round" stroke-linejoin="round"/>
<mask id="path-3-inside-1_1396_422" fill="white">
<path d="M3.97625 6.29798L3.28876 6.30144C3.29066 6.67844 3.5958 6.98358 3.9728 6.98547L3.97625 6.29798ZM6.30622 6.9972C6.68591 6.99911 6.99526 6.69285 6.99716 6.31316C6.99907 5.93347 6.69282 5.62412 6.31313 5.62222L6.30622 6.9972ZM4.65202 3.96111C4.65011 3.58141 4.34076 3.27516 3.96107 3.27707C3.58138 3.27898 3.27513 3.58832 3.27704 3.96802L4.65202 3.96111ZM3.5077 9.88616C3.55926 9.50996 3.2961 9.16325 2.91992 9.11169C2.54375 9.06013 2.19699 9.32324 2.14543 9.69944L3.5077 9.88616ZM17.2903 4.70963C13.7885 1.20779 8.12964 1.17232 4.65096 4.651L5.62324 5.62327C8.55575 2.69075 13.344 2.70779 16.3181 5.6819L17.2903 4.70963ZM4.70959 17.2904C8.21144 20.7922 13.8703 20.8277 17.349 17.349L16.3767 16.3767C13.4442 19.3092 8.65597 19.2923 5.68187 16.3181L4.70959 17.2904ZM17.349 17.349C20.8276 13.8704 20.7922 8.21147 17.2903 4.70963L16.3181 5.6819C19.2922 8.65601 19.3092 13.4442 16.3767 16.3767L17.349 17.349ZM4.65096 4.651L3.49012 5.81185L4.46239 6.78412L5.62324 5.62327L4.65096 4.651ZM3.9728 6.98547L6.30622 6.9972L6.31313 5.62222L3.97971 5.61049L3.9728 6.98547ZM4.66374 6.29453L4.65202 3.96111L3.27704 3.96802L3.28876 6.30144L4.66374 6.29453ZM2.14543 9.69944C1.77745 12.3841 2.6344 15.2152 4.70959 17.2904L5.68187 16.3181C3.92133 14.5576 3.19605 12.1598 3.5077 9.88616L2.14543 9.69944Z"/>
</mask>
<path d="M3.97625 6.29798L3.28876 6.30144C3.29066 6.67844 3.5958 6.98358 3.9728 6.98547L3.97625 6.29798ZM6.30622 6.9972C6.68591 6.99911 6.99526 6.69285 6.99716 6.31316C6.99907 5.93347 6.69282 5.62412 6.31313 5.62222L6.30622 6.9972ZM4.65202 3.96111C4.65011 3.58141 4.34076 3.27516 3.96107 3.27707C3.58138 3.27898 3.27513 3.58832 3.27704 3.96802L4.65202 3.96111ZM3.5077 9.88616C3.55926 9.50996 3.2961 9.16325 2.91992 9.11169C2.54375 9.06013 2.19699 9.32324 2.14543 9.69944L3.5077 9.88616ZM17.2903 4.70963C13.7885 1.20779 8.12964 1.17232 4.65096 4.651L5.62324 5.62327C8.55575 2.69075 13.344 2.70779 16.3181 5.6819L17.2903 4.70963ZM4.70959 17.2904C8.21144 20.7922 13.8703 20.8277 17.349 17.349L16.3767 16.3767C13.4442 19.3092 8.65597 19.2923 5.68187 16.3181L4.70959 17.2904ZM17.349 17.349C20.8276 13.8704 20.7922 8.21147 17.2903 4.70963L16.3181 5.6819C19.2922 8.65601 19.3092 13.4442 16.3767 16.3767L17.349 17.349ZM4.65096 4.651L3.49012 5.81185L4.46239 6.78412L5.62324 5.62327L4.65096 4.651ZM3.9728 6.98547L6.30622 6.9972L6.31313 5.62222L3.97971 5.61049L3.9728 6.98547ZM4.66374 6.29453L4.65202 3.96111L3.27704 3.96802L3.28876 6.30144L4.66374 6.29453ZM2.14543 9.69944C1.77745 12.3841 2.6344 15.2152 4.70959 17.2904L5.68187 16.3181C3.92133 14.5576 3.19605 12.1598 3.5077 9.88616L2.14543 9.69944Z" fill="black"/>
<path d="M5.1371 5.13713L5.66743 4.6068L5.18129 4.12067L4.65096 4.651L4.12063 5.18133L4.60677 5.66746L5.1371 5.13713ZM6.31313 5.62222L5.56314 5.61845L5.55623 6.99343L6.30622 6.9972L7.05621 7.00097L7.06312 5.62599L6.31313 5.62222ZM3.27704 3.96802L3.28081 4.71801L4.65579 4.7111L4.65202 3.96111L4.64825 3.21111L3.27327 3.21803L3.27704 3.96802ZM2.14543 9.69944L2.04358 10.4425L3.40585 10.6292L3.5077 9.88616L3.60955 9.14311L2.24728 8.95639L2.14543 9.69944ZM4.65096 4.651L4.12063 5.18133L5.09291 6.1536L5.62324 5.62327L6.15357 5.09294L5.18129 4.12067L4.65096 4.651ZM16.3181 5.6819L16.8485 6.21221L17.8207 5.23994L17.2903 4.70963L16.76 4.17931L15.7878 5.15158L16.3181 5.6819ZM17.349 17.349L17.8793 16.8187L16.907 15.8464L16.3767 16.3767L15.8463 16.907L16.8187 17.8794L17.349 17.349ZM5.68187 16.3181L5.15155 15.7878L4.17928 16.76L4.70959 17.2904L5.23991 17.8207L6.21218 16.8485L5.68187 16.3181ZM4.65096 4.651L5.71162 5.71166V5.71166L4.65096 4.651ZM3.97625 6.29798L5.47623 6.30552L5.48385 4.79039L3.96871 4.798L3.97625 6.29798ZM3.28876 6.30144L1.78878 6.30897L1.78878 6.30899L3.28876 6.30144ZM3.9728 6.98547L3.96525 8.48545H3.96526L3.9728 6.98547ZM6.30622 6.9972L6.31379 5.49722L6.31375 5.49722L6.30622 6.9972ZM6.31313 5.62222L6.30559 7.1222H6.3056L6.31313 5.62222ZM4.65202 3.96111L3.15204 3.96864V3.96864L4.65202 3.96111ZM3.27704 3.96802L1.77706 3.97555L1.77706 3.97555L3.27704 3.96802ZM3.5077 9.88616L4.9938 10.0899L4.9938 10.0899L3.5077 9.88616ZM2.91992 9.11169L2.71622 10.5978H2.71622L2.91992 9.11169ZM2.14543 9.69944L3.63154 9.90314L3.63154 9.90313L2.14543 9.69944ZM4.70959 17.2904L5.77026 16.2297L5.77024 16.2297L4.70959 17.2904ZM5.68187 16.3181L4.6212 17.3788L4.6212 17.3788L5.68187 16.3181ZM3.49012 5.81185L2.42946 4.75119L1.3688 5.81185L2.42946 6.87251L3.49012 5.81185ZM4.46239 6.78412L3.40173 7.84478L4.46239 8.90544L5.52305 7.84478L4.46239 6.78412ZM3.97971 5.61049L3.98724 4.11051L2.48727 4.10297L2.47973 5.60295L3.97971 5.61049ZM4.66374 6.29453L4.67128 7.79451L6.17126 7.78697L6.16372 6.28699L4.66374 6.29453ZM3.97625 6.29798L3.96871 4.798L3.28122 4.80146L3.28876 6.30144L3.2963 7.80142L3.98379 7.79796L3.97625 6.29798ZM3.28876 6.30144L1.78878 6.30899C1.79482 7.50851 2.76572 8.47942 3.96525 8.48545L3.9728 6.98547L3.98035 5.48549C4.42587 5.48773 4.7865 5.84836 4.78874 6.29389L3.28876 6.30144ZM3.9728 6.98547L5.47278 6.99301L5.47623 6.30552L3.97625 6.29798L2.47627 6.29044L2.47282 6.97793L3.9728 6.98547ZM6.30622 6.9972L6.29865 8.49718C7.5068 8.50327 8.49108 7.52879 8.49714 6.32069L6.99716 6.31316L5.49718 6.30563C5.49944 5.85692 5.86502 5.49495 6.31379 5.49722L6.30622 6.9972ZM6.99716 6.31316L8.49714 6.32069C8.50321 5.11261 7.52879 4.1283 6.32066 4.12223L6.31313 5.62222L6.3056 7.1222C5.85685 7.11994 5.49493 6.75433 5.49718 6.30563L6.99716 6.31316ZM4.65202 3.96111L6.152 3.95357C6.14593 2.74544 5.16163 1.77102 3.95354 1.77709L3.96107 3.27707L3.9686 4.77705C3.5199 4.7793 3.15429 4.41738 3.15204 3.96864L4.65202 3.96111ZM3.96107 3.27707L3.95354 1.77709C2.74541 1.78316 1.77099 2.76746 1.77706 3.97555L3.27704 3.96802L4.77702 3.96048C4.77927 4.40919 4.41735 4.7748 3.9686 4.77705L3.96107 3.27707ZM3.5077 9.88616L4.9938 10.0899C5.15787 8.89282 4.32047 7.78964 3.12362 7.62559L2.91992 9.11169L2.71622 10.5978C2.27173 10.5369 1.96065 10.1271 2.02159 9.68248L3.5077 9.88616ZM2.91992 9.11169L3.12362 7.62559C1.9268 7.46154 0.823396 8.29868 0.659324 9.49575L2.14543 9.69944L3.63154 9.90313C3.57059 10.3478 3.16069 10.6587 2.71622 10.5978L2.91992 9.11169ZM17.2903 4.70963L18.351 3.64897C14.2737 -0.428347 7.66503 -0.484384 3.5903 3.59034L4.65096 4.651L5.71162 5.71166C8.59426 2.82903 13.3033 2.84392 16.2297 5.77029L17.2903 4.70963ZM5.62324 5.62327L6.6839 6.68393C9.02087 4.34695 12.8593 4.34444 15.2574 6.74256L16.3181 5.6819L17.3788 4.62124C13.8287 1.07115 8.09063 1.03455 4.56258 4.56261L5.62324 5.62327ZM4.70959 17.2904L3.64893 18.351C7.72624 22.4283 14.3349 22.4844 18.4097 18.4097L17.349 17.349L16.2883 16.2884C13.4057 19.171 8.69663 19.1561 5.77026 16.2297L4.70959 17.2904ZM16.3767 16.3767L15.316 15.3161C12.979 17.653 9.14063 17.6556 6.74253 15.2575L5.68187 16.3181L4.6212 17.3788C8.17132 20.9289 13.9093 20.9654 17.4373 17.4374L16.3767 16.3767ZM17.349 17.349L18.4097 18.4097C22.4844 14.335 22.4283 7.72628 18.351 3.64897L17.2903 4.70963L16.2297 5.77029C19.156 8.69666 19.1709 13.4058 16.2883 16.2884L17.349 17.349ZM16.3181 5.6819L15.2574 6.74256C17.6556 9.14066 17.653 12.9791 15.316 15.3161L16.3767 16.3767L17.4373 17.4374C20.9654 13.9093 20.9289 8.17135 17.3788 4.62124L16.3181 5.6819ZM4.65096 4.651L3.5903 3.59034L2.42946 4.75119L3.49012 5.81185L4.55078 6.87251L5.71162 5.71166L4.65096 4.651ZM3.49012 5.81185L2.42946 6.87251L3.40173 7.84478L4.46239 6.78412L5.52305 5.72346L4.55078 4.75119L3.49012 5.81185ZM4.46239 6.78412L5.52305 7.84478L6.6839 6.68393L5.62324 5.62327L4.56258 4.56261L3.40173 5.72346L4.46239 6.78412ZM3.9728 6.98547L3.96526 8.48545L6.29868 8.49718L6.30622 6.9972L6.31375 5.49722L3.98033 5.48549L3.9728 6.98547ZM6.31313 5.62222L6.32067 4.12223L3.98724 4.11051L3.97971 5.61049L3.97217 7.11047L6.30559 7.1222L6.31313 5.62222ZM3.97971 5.61049L2.47973 5.60295L2.47282 6.97793L3.9728 6.98547L5.47278 6.99301L5.47969 5.61803L3.97971 5.61049ZM4.66374 6.29453L6.16372 6.28699L6.152 3.95357L4.65202 3.96111L3.15204 3.96864L3.16376 6.30206L4.66374 6.29453ZM3.27704 3.96802L1.77706 3.97555L1.78878 6.30897L3.28876 6.30144L4.78874 6.2939L4.77702 3.96048L3.27704 3.96802ZM3.28876 6.30144L3.2963 7.80142L4.67128 7.79451L4.66374 6.29453L4.6562 4.79454L3.28122 4.80146L3.28876 6.30144ZM2.14543 9.69944L0.659325 9.49574C0.229906 12.6286 1.23038 15.9325 3.64895 18.351L4.70959 17.2904L5.77024 16.2297C4.03841 14.4979 3.325 12.1395 3.63154 9.90314L2.14543 9.69944ZM5.68187 16.3181L6.74253 15.2575C5.32518 13.8401 4.74363 11.915 4.9938 10.0899L3.5077 9.88616L2.02159 9.68246C1.64847 12.4046 2.51749 15.2751 4.6212 17.3788L5.68187 16.3181Z" fill="black" mask="url(#path-3-inside-1_1396_422)"/>
</svg>
