<svg width="22" height="22" viewBox="0 0 22 22" fill="none" xmlns="http://www.w3.org/2000/svg">
<path d="M8.25195 6.41659C8.26305 4.42281 8.35147 3.34306 9.05581 2.63871C9.8613 1.83325 11.1576 1.83325 13.7503 1.83325H14.667C17.2597 1.83325 18.5562 1.83325 19.3615 2.63871C20.167 3.44417 20.167 4.74052 20.167 7.33325V14.6666C20.167 17.2593 20.167 18.5556 19.3615 19.3611C18.5562 20.1666 17.2597 20.1666 14.667 20.1666H13.7503C11.1576 20.1666 9.8613 20.1666 9.05581 19.3611C8.35147 18.6567 8.26305 17.577 8.25195 15.5833" stroke="#FF0000" stroke-width="1.5" stroke-linecap="round"/>
<path d="M13.7497 11H1.83301M1.83301 11L5.04134 8.25M1.83301 11L5.04134 13.75" stroke="#FF0000" stroke-width="1.5" stroke-linecap="round" stroke-linejoin="round"/>
</svg>
