<svg width="24" height="30" viewBox="0 0 24 30" fill="none" xmlns="http://www.w3.org/2000/svg">
<path d="M11.8783 2.31201C7.40306 2.31201 3.76616 5.94891 3.76616 10.424V14.3313C3.76616 15.1561 3.41464 16.4134 2.99552 17.1165L1.44071 19.6988C0.480784 21.2942 1.14327 23.0653 2.90088 23.6602C8.72803 25.6071 15.0149 25.6071 20.8421 23.6602C22.478 23.1194 23.1946 21.186 22.3022 19.6988L20.7474 17.1165C20.3418 16.4134 19.9903 15.1561 19.9903 14.3313V10.424C19.9903 5.96243 16.3399 2.31201 11.8783 2.31201Z" stroke="#0F0F0F" stroke-width="2" stroke-miterlimit="10" stroke-linecap="round"/>
<path d="M14.3794 2.70353C13.9603 2.58185 13.5276 2.48721 13.0815 2.43313C11.7835 2.27089 10.5397 2.36553 9.37695 2.70353C9.76904 1.70304 10.7425 1 11.8782 1C13.0139 1 13.9873 1.70304 14.3794 2.70353Z" stroke="#0F0F0F" stroke-width="2" stroke-miterlimit="10" stroke-linecap="round" stroke-linejoin="round"/>
<path d="M15.9338 24.1467C15.9338 26.3775 14.1086 28.2027 11.8778 28.2027C10.7691 28.2027 9.7416 27.7431 9.01154 27.013C8.28146 26.2829 7.82178 25.2554 7.82178 24.1467" stroke="#0F0F0F" stroke-width="2" stroke-miterlimit="10"/>
</svg>
