<svg width="25" height="31" viewBox="0 0 25 31" fill="none" xmlns="http://www.w3.org/2000/svg">
<path d="M10.3587 0.123764C9.60371 0.358912 9.34381 0.569307 8.71262 1.52228C8.37846 2.0297 8.10619 2.45049 8.10619 2.47525C8.10619 2.72277 6.12599 5.65594 5.19777 6.79456C3.65074 8.68812 2.57401 10.1856 2.43787 10.6559C2.25223 11.2871 2.22747 26.0767 2.41312 27.6485C2.59876 29.2327 3.34134 30.2228 4.77698 30.7673C5.34629 30.9901 5.89084 31.0025 13.6879 31.0025C21.2869 31.0025 22.0542 30.9777 22.6111 30.7921C23.4527 30.495 24.2324 29.7772 24.6532 28.9233L24.9998 28.2178V15.5322V2.84653L24.678 2.16584C24.2696 1.29951 23.7002 0.717823 22.8339 0.33416L22.1532 0.0123768L16.4973 0C12.6606 0 10.6804 0.0371304 10.3587 0.123764ZM21.4478 2.22772C21.4601 2.36386 21.2374 2.89604 20.9403 3.40347L20.4082 4.33168H15.0493C10.3834 4.33168 9.66559 4.30693 9.56658 4.14604C9.47995 4.0099 9.56658 3.73763 9.91312 3.15594C10.7176 1.7698 10.0121 1.90594 16.0765 1.94307C21.2993 1.9802 21.4106 1.9802 21.4478 2.22772ZM14.5047 10.099C14.9007 10.7178 15.3587 11.4356 15.5196 11.6832C16.9057 13.7871 18.4898 17.104 18.7374 18.453C19.121 20.4703 17.9082 22.8094 16.027 23.7252C15.1111 24.1708 14.4799 24.2946 13.3537 24.2574C11.1507 24.1832 9.14579 22.4505 8.71262 20.2475C8.53936 19.3564 8.62599 18.1559 8.91064 17.4505C9.02203 17.1782 9.15817 16.8441 9.20767 16.7079C9.56658 15.8168 10.7423 13.6139 11.5715 12.2525C12.1161 11.3614 12.7844 10.2723 13.0567 9.80198C13.3413 9.34406 13.6136 8.97277 13.6755 8.97277C13.7374 8.97277 14.1087 9.4802 14.5047 10.099Z" fill="#0F0F0F"/>
<path d="M10.1114 19.5174C9.61631 20.0125 10.3589 21.4976 11.5718 22.3763C12.4505 23.0075 13.552 23.057 13.7376 22.4753C13.849 22.104 13.552 21.7328 13.0198 21.5842C12.4133 21.4234 11.7698 20.8293 11.349 20.0496C11.0767 19.5422 10.9529 19.4184 10.6435 19.3936C10.4331 19.3689 10.198 19.4308 10.1114 19.5174Z" fill="#0F0F0F"/>
<path d="M2.88366 3.30436C2.78465 3.39099 2.43812 3.79941 2.12871 4.20782C1.81931 4.61624 1.31188 5.22268 1.01485 5.54446C0.705446 5.87862 0.358911 6.34891 0.235149 6.58406L0 7.01723L0.730198 7.67317C1.58416 8.46525 1.58416 8.46525 2.5 7.1905C2.85891 6.70782 3.31683 6.11377 3.52723 5.87862C3.73762 5.64347 4.12129 5.19792 4.36881 4.90089L4.81436 4.36872L4.15842 3.76228C3.47772 3.13109 3.21782 3.04446 2.88366 3.30436Z" fill="#0F0F0F"/>
<path d="M4.00974 5.96543C3.44043 6.69563 2.72261 7.54959 2.42558 7.88375C1.86865 8.49019 1.83152 8.72534 2.27707 8.96048C2.5741 9.12137 2.5741 9.13375 4.24489 7.0793C5.84142 5.12385 5.87855 5.07434 5.56914 4.8392C5.43301 4.72781 5.25974 4.64118 5.18548 4.64118C5.09885 4.64118 4.57905 5.23524 4.00974 5.96543Z" fill="#0F0F0F"/>
</svg>
