<svg width="30" height="30" viewBox="0 0 30 30" fill="none" xmlns="http://www.w3.org/2000/svg">
<path d="M27.5805 15.9677H30V12.0968H27.5806V10.6451H15.9677V10.1366C18.4093 9.8932 20.3225 7.82701 20.3225 5.32247V0H10.6451V5.32257C10.6451 7.02722 11.5335 8.5253 12.869 9.38758L10.9824 10.6451H10.6451C9.84484 10.6451 9.1935 11.2965 9.1935 12.0968V12.5807H6.29033V16.4516H9.1935C9.1935 17.2519 9.84484 17.9032 10.6451 17.9032H14.9999V20.8055C14.9999 20.8302 14.9758 23.2258 13.5483 23.2258V24.1935C15.462 24.1935 15.9677 21.9779 15.9677 20.8065V17.9031H17.1203L21.0252 25.7128L21.5327 25.6039L23.5611 27.6323L25.5024 27.147C25.185 27.8597 24.1539 29.0321 20.8065 29.0321H0V29.9999H20.8064C25.6605 29.9999 26.4571 27.6768 26.5871 26.876L28.0644 26.5069V24.2046L28.7515 24.0575L25.7641 17.4192H27.5805V15.9677ZM27.5805 13.0643H29.0321V14.9998H27.5805V13.0643ZM9.1936 15.4837H7.25809V13.5482H9.1936V15.4837ZM14.9999 16.9354H10.6451C10.378 16.9354 10.1613 16.7186 10.1613 16.4515V12.5806V12.0967C10.1613 11.83 10.378 11.6128 10.6451 11.6128H14.9999V16.9354ZM14.9999 10.6451H12.7272L13.8745 9.8801C14.2331 10.0073 14.6085 10.0973 14.9999 10.1366V10.6451ZM15.4838 9.1935C13.3495 9.1935 11.6129 7.45694 11.6129 5.32257V0.967657H19.3548V5.32247C19.3548 7.45684 17.6182 9.1935 15.4838 9.1935ZM27.0967 25.7511L23.8582 26.561L22.6596 25.3624L27.0967 24.4116V25.7511ZM25.3292 16.4515L24.151 13.8337L23.2684 14.2305L27.3774 23.3616L21.5555 24.6096L17.7184 16.9354H15.9677V11.6128H26.6128V12.0967V15.9676V16.4515H25.3292Z" fill="#0F0F0F"/>
<path d="M5.3226 14.032H1.93555V14.9997H5.3226V14.032Z" fill="#0F0F0F"/>
<path d="M0.967758 14.032H0V14.9997H0.967758V14.032Z" fill="#0F0F0F"/>
<path d="M5.664 12.7219L1.06738 8.12524L0.383081 8.80955L4.9797 13.4062L5.664 12.7219Z" fill="#0F0F0F"/>
<path d="M0.82657 21.1483L5.66504 16.3098L4.98074 15.6255L0.142268 20.464L0.82657 21.1483Z" fill="#0F0F0F"/>
<path d="M17.9033 12.5806H16.9355V13.5483H17.9033V12.5806Z" fill="#0F0F0F"/>
<path d="M19.8384 12.5806H18.8706V13.5483H19.8384V12.5806Z" fill="#0F0F0F"/>
<path d="M1.93553 11.613H0.967773V12.5808H1.93553V11.613Z" fill="#0F0F0F"/>
<path d="M1.93553 16.4514H0.967773V17.4192H1.93553V16.4514Z" fill="#0F0F0F"/>
<path d="M18.3869 2.90308H12.5806V5.32247C12.5806 6.92358 13.8826 8.22565 15.4837 8.22565C17.0848 8.22565 18.3869 6.92358 18.3869 5.32247V2.90308ZM17.4192 5.32247C17.4192 6.38991 16.5511 7.25799 15.4836 7.25799C14.4163 7.25799 13.5482 6.38991 13.5482 5.32247V3.87083H17.4192V5.32247Z" fill="#0F0F0F"/>
</svg>
