<svg width="18" height="20" viewBox="0 0 18 20" fill="none" xmlns="http://www.w3.org/2000/svg">
<path fill-rule="evenodd" clip-rule="evenodd" d="M14.5465 1.5081C13.6129 0.452494 11.9257 0 9.76673 0H3.50198C3.06035 0 2.68487 0.318737 2.61557 0.750605L0.00672276 17.1641C-0.0449377 17.4878 0.207715 17.781 0.538466 17.781H4.40603L5.37749 11.6686L5.34725 11.8598C5.41655 11.4279 5.78953 11.1092 6.23053 11.1092H8.06822C11.6794 11.1092 14.5062 9.65422 15.3321 5.44553C15.3567 5.32053 15.3964 5.08118 15.3964 5.08118C15.6308 3.5237 15.3945 2.46684 14.5465 1.5081ZM16.3754 5.87835C15.4771 10.022 12.6131 12.2151 8.06822 12.2151H6.42014L5.19102 20H7.86411C8.2503 20 8.57852 19.7213 8.639 19.3431L8.67051 19.1781L9.28539 15.3145L9.32509 15.1013C9.38494 14.7232 9.71381 14.4445 10.0994 14.4445H10.5876C13.7458 14.4445 16.2192 13.1713 16.9418 9.49015C17.2316 8.01268 17.0924 6.77396 16.3754 5.87835Z" fill="#022B87"/>
</svg>
