<svg width="25" height="25" viewBox="0 0 25 25" fill="none" xmlns="http://www.w3.org/2000/svg">
<path d="M16.1456 5.7291L19.0919 8.67538M3.125 21.8747L3.17443 21.5286C3.34933 20.3044 3.43679 19.6922 3.63572 19.1206C3.81224 18.6134 4.05337 18.1311 4.35319 17.6857C4.69105 17.1836 5.12832 16.7463 6.00285 15.8719L18.1361 3.73849C18.9498 2.9249 20.2689 2.9249 21.0825 3.73849C21.896 4.55208 21.896 5.87118 21.0825 6.68477L8.7265 19.0407C7.93311 19.8342 7.53643 20.2308 7.08458 20.5462C6.68352 20.8262 6.25097 21.0582 5.79581 21.2374C5.28303 21.4393 4.73307 21.5502 3.63326 21.7721L3.125 21.8747Z" stroke="black" stroke-width="2" stroke-linecap="round" stroke-linejoin="round"/>
</svg>
