<svg width="25" height="25" viewBox="0 0 25 25" fill="none" xmlns="http://www.w3.org/2000/svg">
<path d="M5.55556 2.77778C5.55556 4.3119 4.3119 5.55556 2.77778 5.55556C1.24365 5.55556 0 4.3119 0 2.77778C0 1.24365 1.24365 0 2.77778 0C4.3119 0 5.55556 1.24365 5.55556 2.77778Z" fill="#FFB700"/>
<path d="M15.2777 2.77778C15.2777 4.3119 14.0341 5.55556 12.4999 5.55556C10.9658 5.55556 9.72217 4.3119 9.72217 2.77778C9.72217 1.24365 10.9658 0 12.4999 0C14.0341 0 15.2777 1.24365 15.2777 2.77778Z" fill="#FFB700"/>
<path d="M22.2221 5.55556C23.7563 5.55556 24.9999 4.3119 24.9999 2.77778C24.9999 1.24365 23.7563 0 22.2221 0C20.6879 0 19.4443 1.24365 19.4443 2.77778C19.4443 4.3119 20.6879 5.55556 22.2221 5.55556Z" fill="#FFB700"/>
<path d="M5.55556 12.4999C5.55556 14.0341 4.3119 15.2777 2.77778 15.2777C1.24365 15.2777 0 14.0341 0 12.4999C0 10.9658 1.24365 9.72217 2.77778 9.72217C4.3119 9.72217 5.55556 10.9658 5.55556 12.4999Z" fill="#FFB700"/>
<path d="M12.4999 15.2777C14.0341 15.2777 15.2777 14.0341 15.2777 12.4999C15.2777 10.9658 14.0341 9.72217 12.4999 9.72217C10.9658 9.72217 9.72217 10.9658 9.72217 12.4999C9.72217 14.0341 10.9658 15.2777 12.4999 15.2777Z" fill="#FFB700"/>
<path d="M24.9999 12.4999C24.9999 14.0341 23.7563 15.2777 22.2221 15.2777C20.6879 15.2777 19.4443 14.0341 19.4443 12.4999C19.4443 10.9658 20.6879 9.72217 22.2221 9.72217C23.7563 9.72217 24.9999 10.9658 24.9999 12.4999Z" fill="#FFB700"/>
<path d="M2.77778 24.9999C4.3119 24.9999 5.55556 23.7563 5.55556 22.2221C5.55556 20.6879 4.3119 19.4443 2.77778 19.4443C1.24365 19.4443 0 20.6879 0 22.2221C0 23.7563 1.24365 24.9999 2.77778 24.9999Z" fill="#FFB700"/>
<path d="M15.2777 22.2221C15.2777 23.7563 14.0341 24.9999 12.4999 24.9999C10.9658 24.9999 9.72217 23.7563 9.72217 22.2221C9.72217 20.6879 10.9658 19.4443 12.4999 19.4443C14.0341 19.4443 15.2777 20.6879 15.2777 22.2221Z" fill="#FFB700"/>
<path d="M22.2221 24.9999C23.7563 24.9999 24.9999 23.7563 24.9999 22.2221C24.9999 20.6879 23.7563 19.4443 22.2221 19.4443C20.6879 19.4443 19.4443 20.6879 19.4443 22.2221C19.4443 23.7563 20.6879 24.9999 22.2221 24.9999Z" fill="#FFB700"/>
</svg>
