<svg width="25" height="25" viewBox="0 0 25 25" fill="none" xmlns="http://www.w3.org/2000/svg">
<path fill-rule="evenodd" clip-rule="evenodd" d="M17.6039 7.49997C17.6039 4.74247 15.3148 2.49998 12.5 2.49998C9.6852 2.49998 7.39609 4.74247 7.39609 7.49997C7.39609 10.2575 9.6852 12.5 12.5 12.5C15.3148 12.5 17.6039 10.2575 17.6039 7.49997ZM22.4322 24.9999H20.1559C19.4515 24.9999 18.8799 24.4399 18.8799 23.7499C18.8799 23.0599 19.4515 22.5 20.1559 22.5H20.7032C21.5862 22.5 22.2382 21.6287 21.9039 20.8274C20.3587 17.1224 16.7299 15 12.5 15C8.27015 15 4.64126 17.1224 3.09606 20.8274C2.76175 21.6287 3.4138 22.5 4.29677 22.5H4.84414C5.54848 22.5 6.12012 23.0599 6.12012 23.7499C6.12012 24.4399 5.54848 24.9999 4.84414 24.9999H2.5678C0.972833 24.9999 -0.282727 23.5712 0.0554061 22.0449C0.984315 17.8462 3.88463 14.7474 7.70489 13.3412C5.96191 11.9674 4.84414 9.86248 4.84414 7.49997C4.84414 3.06123 8.77927 -0.476278 13.4174 0.052471C16.7784 0.43497 19.5625 3.05866 20.0665 6.33741C20.5004 9.16366 19.3201 11.7449 17.2951 13.3412C21.1154 14.7474 24.0157 17.8462 24.9446 22.0449C25.2827 23.5712 24.0272 24.9999 22.4322 24.9999ZM16.3279 23.7499C16.3279 24.4399 15.7563 24.9999 15.052 24.9999H9.94805C9.24371 24.9999 8.67207 24.4399 8.67207 23.7499C8.67207 23.0599 9.24371 22.5 9.94805 22.5H15.052C15.7563 22.5 16.3279 23.0599 16.3279 23.7499Z" fill="#FFB700"/>
</svg>
