<svg width="22" height="22" viewBox="0 0 22 22" fill="none" xmlns="http://www.w3.org/2000/svg">
<path d="M12.906 1.375C13.0515 1.375 13.1933 1.42121 13.3109 1.50695C13.4285 1.59269 13.5159 1.71355 13.5605 1.85212L14.3167 4.202C14.6343 4.35737 14.9382 4.532 15.2283 4.72862L17.6428 4.20888C17.7852 4.17848 17.9335 4.19406 18.0665 4.25336C18.1994 4.31267 18.3101 4.41264 18.3826 4.53888L20.2883 7.8375C20.3611 7.96366 20.3919 8.10968 20.3764 8.2545C20.3608 8.39931 20.2996 8.53544 20.2017 8.64325L18.5448 10.472C18.569 10.8227 18.569 11.1746 18.5448 11.5252L20.2017 13.3567C20.2996 13.4646 20.3608 13.6007 20.3764 13.7455C20.3919 13.8903 20.3611 14.0363 20.2883 14.1625L18.3826 17.4625C18.3099 17.5885 18.1991 17.6882 18.0662 17.7472C17.9333 17.8063 17.785 17.8216 17.6428 17.7911L15.2283 17.2714C14.9396 17.4666 14.6343 17.6426 14.3181 17.798L13.5605 20.1479C13.5159 20.2864 13.4285 20.4073 13.3109 20.4931C13.1933 20.5788 13.0515 20.625 12.906 20.625H9.09446C8.9489 20.625 8.80711 20.5788 8.68949 20.4931C8.57187 20.4073 8.4845 20.2864 8.43996 20.1479L7.68509 17.7994C7.36831 17.6445 7.06277 17.4676 6.77071 17.27L4.35758 17.7911C4.21522 17.8215 4.06689 17.8059 3.93395 17.7466C3.80101 17.6873 3.69032 17.5874 3.61783 17.4611L1.71208 14.1625C1.63931 14.0363 1.60849 13.8903 1.62406 13.7455C1.63963 13.6007 1.70078 13.4646 1.79871 13.3567L3.45558 11.5252C3.43158 11.1755 3.43158 10.8245 3.45558 10.4748L1.79871 8.64325C1.70078 8.53544 1.63963 8.39931 1.62406 8.2545C1.60849 8.10968 1.63931 7.96366 1.71208 7.8375L3.61783 4.5375C3.69052 4.41151 3.80129 4.31183 3.93422 4.25278C4.06714 4.19373 4.21537 4.17836 4.35758 4.20888L6.77071 4.73C7.06221 4.53338 7.36746 4.356 7.68509 4.20063L8.44133 1.85212C8.48573 1.714 8.57268 1.59346 8.68975 1.50776C8.80682 1.42205 8.948 1.37559 9.09308 1.375H12.9046H12.906ZM12.4027 2.75H9.59771L8.81671 5.17963L8.29008 5.43675C8.0312 5.56344 7.78128 5.70769 7.54209 5.8685L7.05534 6.1985L4.55833 5.6595L3.15583 8.0905L4.86771 9.98525L4.82646 10.5682C4.8067 10.8557 4.8067 11.1443 4.82646 11.4318L4.86771 12.0147L3.15308 13.9095L4.55696 16.3405L7.05396 15.8029L7.54071 16.1315C7.7799 16.2923 8.02982 16.4366 8.28871 16.5632L8.81533 16.8204L9.59771 19.25H12.4055L13.1892 16.819L13.7145 16.5632C13.9731 16.4369 14.2225 16.2926 14.4611 16.1315L14.9465 15.8029L17.4448 16.3405L18.8473 13.9095L17.1341 12.0147L17.1753 11.4318C17.1952 11.1438 17.1952 10.8548 17.1753 10.5669L17.1341 9.98388L18.8487 8.0905L17.4448 5.6595L14.9465 6.19575L14.4611 5.8685C14.2226 5.70737 13.9731 5.5631 13.7145 5.43675L13.1892 5.181L12.4041 2.75H12.4027ZM11.0002 6.875C12.0942 6.875 13.1434 7.3096 13.917 8.08318C14.6906 8.85677 15.1252 9.90598 15.1252 11C15.1252 12.094 14.6906 13.1432 13.917 13.9168C13.1434 14.6904 12.0942 15.125 11.0002 15.125C9.90619 15.125 8.85698 14.6904 8.08339 13.9168C7.30981 13.1432 6.87521 12.094 6.87521 11C6.87521 9.90598 7.30981 8.85677 8.08339 8.08318C8.85698 7.3096 9.90619 6.875 11.0002 6.875ZM11.0002 8.25C10.2709 8.25 9.57139 8.53973 9.05567 9.05546C8.53994 9.57118 8.25021 10.2707 8.25021 11C8.25021 11.7293 8.53994 12.4288 9.05567 12.9445C9.57139 13.4603 10.2709 13.75 11.0002 13.75C11.7296 13.75 12.429 13.4603 12.9448 12.9445C13.4605 12.4288 13.7502 11.7293 13.7502 11C13.7502 10.2707 13.4605 9.57118 12.9448 9.05546C12.429 8.53973 11.7296 8.25 11.0002 8.25Z" fill="black"/>
</svg>
