<svg width="13" height="13" viewBox="0 0 13 13" fill="none" xmlns="http://www.w3.org/2000/svg">
<path d="M4.95764 2.92946C5.64373 1.69866 5.98677 1.08325 6.49968 1.08325C7.01258 1.08325 7.35562 1.69865 8.04169 2.92945L8.2192 3.24788C8.4142 3.59763 8.51164 3.77251 8.66369 3.8879C8.81568 4.00329 9.00494 4.04611 9.38356 4.13178L9.72828 4.20977C11.0606 4.51122 11.7268 4.66195 11.8853 5.17161C12.0437 5.68124 11.5896 6.21235 10.6813 7.27445L10.4463 7.54924C10.1882 7.85105 10.0591 8.00196 10.0011 8.18867C9.94305 8.37539 9.96255 8.57672 10.0015 8.97945L10.0371 9.34605C10.1744 10.7632 10.2431 11.4717 9.82816 11.7867C9.41319 12.1017 8.78946 11.8145 7.542 11.2402L7.21928 11.0915C6.86481 10.9283 6.68758 10.8467 6.49968 10.8467C6.31177 10.8467 6.13454 10.9283 5.78007 11.0915L5.45735 11.2402C4.20988 11.8145 3.58615 12.1017 3.17122 11.7867C2.75628 11.4717 2.82494 10.7632 2.96227 9.34605L2.99779 8.97945C3.03682 8.57672 3.05633 8.37539 2.99827 8.18867C2.94021 8.00196 2.81116 7.85105 2.55305 7.54924L2.31806 7.27445C1.40977 6.21235 0.95562 5.68124 1.11411 5.17161C1.2726 4.66195 1.93877 4.51122 3.27109 4.20977L3.61578 4.13178C3.99439 4.04611 4.18369 4.00329 4.33568 3.8879C4.48768 3.77251 4.58517 3.59764 4.78014 3.24788L4.95764 2.92946Z" fill="#F9BA00"/>
</svg>
