<svg width="25" height="28" viewBox="0 0 25 28" fill="none" xmlns="http://www.w3.org/2000/svg">
<path opacity="0.5" d="M13.5416 21.8749V5.90267H18.0554V3.81934H6.94434V5.90267H11.4582V21.8749H6.94434V23.9582H18.0554V21.8749H13.5416Z" fill="#0F0F0F"/>
<path d="M6.94444 6.25V3.47222C6.94444 2.82686 6.94444 2.50419 6.89107 2.23586C6.67189 1.13394 5.8105 0.272555 4.70858 0.053375C4.44025 -3.62181e-08 4.11758 0 3.47222 0C2.82686 0 2.50419 -3.62181e-08 2.23586 0.053375C1.13394 0.272555 0.272555 1.13394 0.053375 2.23586C-3.62181e-08 2.50419 0 2.82686 0 3.47222V6.25C0 6.89536 -3.62181e-08 7.21803 0.053375 7.48636C0.272555 8.58828 1.13394 9.44966 2.23586 9.66885C2.50419 9.72222 2.82686 9.72222 3.47222 9.72222C4.11758 9.72222 4.44025 9.72222 4.70858 9.66885C5.8105 9.44966 6.67189 8.58828 6.89107 7.48636C6.94444 7.21803 6.94444 6.89536 6.94444 6.25Z" fill="#0F0F0F"/>
<path d="M25.0001 6.25V3.47222C25.0001 2.82686 25.0001 2.50419 24.9468 2.23586C24.7276 1.13394 23.8662 0.272555 22.7643 0.053375C22.4959 -3.62181e-08 22.1733 0 21.5279 0C20.8825 0 20.5598 -3.62181e-08 20.2915 0.053375C19.1896 0.272555 18.3282 1.13394 18.109 2.23586C18.0557 2.50419 18.0557 2.82686 18.0557 3.47222V6.25C18.0557 6.89536 18.0557 7.21803 18.109 7.48636C18.3282 8.58828 19.1896 9.44966 20.2915 9.66885C20.5598 9.72222 20.8825 9.72222 21.5279 9.72222C22.1733 9.72222 22.4959 9.72222 22.7643 9.66885C23.8662 9.44966 24.7276 8.58828 24.9468 7.48636C25.0001 7.21803 25.0001 6.89536 25.0001 6.25Z" fill="#0F0F0F"/>
<path d="M6.94444 24.3054V21.5276C6.94444 20.8822 6.94444 20.5596 6.89107 20.2913C6.67189 19.1893 5.8105 18.3279 4.70858 18.1088C4.44025 18.0554 4.11758 18.0554 3.47222 18.0554C2.82686 18.0554 2.50419 18.0554 2.23586 18.1088C1.13394 18.3279 0.272555 19.1893 0.053375 20.2913C-3.62181e-08 20.5596 0 20.8822 0 21.5276V24.3054C0 24.9508 -3.62181e-08 25.2735 0.053375 25.5418C0.272555 26.6438 1.13394 27.5051 2.23586 27.7243C2.50419 27.7776 2.82686 27.7776 3.47222 27.7776C4.11758 27.7776 4.44025 27.7776 4.70858 27.7243C5.8105 27.5051 6.67189 26.6438 6.89107 25.5418C6.94444 25.2735 6.94444 24.9508 6.94444 24.3054Z" fill="#0F0F0F"/>
<path d="M25.0001 24.3054V21.5276C25.0001 20.8822 25.0001 20.5596 24.9468 20.2913C24.7276 19.1893 23.8662 18.3279 22.7643 18.1088C22.4959 18.0554 22.1733 18.0554 21.5279 18.0554C20.8825 18.0554 20.5598 18.0554 20.2915 18.1088C19.1896 18.3279 18.3282 19.1893 18.109 20.2913C18.0557 20.5596 18.0557 20.8822 18.0557 21.5276V24.3054C18.0557 24.9508 18.0557 25.2735 18.109 25.5418C18.3282 26.6438 19.1896 27.5051 20.2915 27.7243C20.5598 27.7776 20.8825 27.7776 21.5279 27.7776C22.1733 27.7776 22.4959 27.7776 22.7643 27.7243C23.8662 27.5051 24.7276 26.6438 24.9468 25.5418C25.0001 25.2735 25.0001 24.9508 25.0001 24.3054Z" fill="#0F0F0F"/>
</svg>
