<svg width="12" height="12" viewBox="0 0 12 12" fill="none" xmlns="http://www.w3.org/2000/svg">
<path d="M10 1.5C10.1326 1.5 10.2598 1.44732 10.3536 1.35355C10.4473 1.25979 10.5 1.13261 10.5 1C10.5 0.867392 10.4473 0.740215 10.3536 0.646447C10.2598 0.552678 10.1326 0.5 10 0.5H2C1.86739 0.5 1.74021 0.552678 1.64645 0.646447C1.55268 0.740215 1.5 0.867392 1.5 1C1.5 1.13261 1.55268 1.25979 1.64645 1.35355C1.74021 1.44732 1.86739 1.5 2 1.5H2.5245C2.5975 2.418 2.896 4.375 4.1215 5.5C2.829 6.7555 2.566 9.367 2.5135 10.5H2C1.86739 10.5 1.74021 10.5527 1.64645 10.6464C1.55268 10.7402 1.5 10.8674 1.5 11C1.5 11.1326 1.55268 11.2598 1.64645 11.3536C1.74021 11.4473 1.86739 11.5 2 11.5H10C10.1326 11.5 10.2598 11.4473 10.3536 11.3536C10.4473 11.2598 10.5 11.1326 10.5 11C10.5 10.8674 10.4473 10.7402 10.3536 10.6464C10.2598 10.5527 10.1326 10.5 10 10.5H9.4865C9.434 9.368 9.171 6.7565 7.8785 5.5C9.104 4.374 9.4025 2.417 9.4755 1.5H10ZM6.79 5.063C6.71057 5.10711 6.64466 5.17204 6.59935 5.2508C6.55404 5.32956 6.53105 5.41917 6.53285 5.51002C6.53465 5.60086 6.56117 5.6895 6.60956 5.7664C6.65795 5.8433 6.72638 5.90557 6.8075 5.9465C8.026 6.5605 8.4075 9.102 8.485 10.5H3.515C3.5905 9.1 3.974 6.5605 5.1925 5.9465C5.27362 5.90557 5.34205 5.8433 5.39044 5.7664C5.43883 5.6895 5.46535 5.60086 5.46715 5.51002C5.46895 5.41917 5.44596 5.32956 5.40065 5.2508C5.35534 5.17204 5.28943 5.10711 5.21 5.063C3.9405 4.3585 3.6135 2.422 3.529 1.5H8.471C8.3865 2.422 8.0595 4.3585 6.79 5.063ZM6 6.5C6 6.5 7.5 7.7 7.5 8.3V10H4.5V8.3C4.5 7.7 6 6.5 6 6.5Z" fill="#808080"/>
</svg>
