<svg width="20" height="20" viewBox="0 0 20 20" fill="none" xmlns="http://www.w3.org/2000/svg">
<path d="M10 2.26636C10.1068 2.26636 10.2812 2.31209 10.6104 2.74194C10.9398 3.1722 11.3112 3.83546 11.8486 4.79956L12.1221 5.28882C12.3616 5.71852 12.5547 6.08471 12.8389 6.35132L12.9668 6.45972C13.3281 6.73395 13.7738 6.82202 14.3047 6.94214L14.835 7.06226C15.8802 7.29875 16.5943 7.46206 17.084 7.65503C17.562 7.84343 17.6712 8.00075 17.7129 8.13452C17.7565 8.27483 17.7532 8.4817 17.4678 8.9353C17.178 9.39569 16.6891 9.9695 15.9775 10.8015L15.6162 11.2244C15.2517 11.6507 14.949 11.9875 14.8145 12.4197C14.6809 12.8494 14.7359 13.3032 14.791 13.8728L14.8457 14.4363C14.9532 15.5454 15.0256 16.3122 15.001 16.865C14.9795 17.3474 14.8874 17.5317 14.7969 17.6218L14.7578 17.656C14.6661 17.7254 14.5039 17.7913 14.0078 17.6492C13.5032 17.5045 12.833 17.1983 11.8545 16.7478L11.3584 16.5193C10.8634 16.2914 10.4514 16.0876 10 16.0876C9.54874 16.0877 9.13736 16.2915 8.64258 16.5193L8.14551 16.7478C7.16693 17.1983 6.49682 17.5046 5.99219 17.6492C5.4955 17.7914 5.33375 17.7255 5.24219 17.656C5.14083 17.5791 5.02458 17.4168 5 16.865C4.97541 16.3122 5.04779 15.5454 5.15527 14.4363L5.20996 13.8728C5.26515 13.3033 5.32019 12.8495 5.18652 12.4197C5.05203 11.9874 4.74937 11.6507 4.38477 11.2244L4.02344 10.8015C3.31187 9.96945 2.82303 9.39571 2.5332 8.9353C2.24766 8.4816 2.24445 8.27483 2.28809 8.13452C2.32976 8.00074 2.43892 7.84343 2.91699 7.65503C3.40666 7.46207 4.12079 7.29875 5.16602 7.06226L5.69629 6.94214C6.22706 6.82205 6.6729 6.73397 7.03418 6.45972C7.3917 6.18828 7.60504 5.78011 7.87891 5.28882L8.15234 4.79956C8.68984 3.83533 9.06116 3.1722 9.39062 2.74194C9.71947 2.31252 9.89316 2.26645 10 2.26636Z" stroke="#F9BA00" stroke-width="1.2"/>
</svg>
