<svg width="27" height="27" viewBox="0 0 27 27" fill="none" xmlns="http://www.w3.org/2000/svg">
<path d="M25.75 13.5049V15.4063C25.75 20.2823 25.75 22.7204 24.2855 24.2351C22.8211 25.75 20.464 25.75 15.75 25.75H10.75C6.03595 25.75 3.67894 25.75 2.21446 24.2351C0.75 22.7204 0.75 20.2823 0.75 15.4063V13.5049C0.75 10.6444 0.75 9.2141 1.399 8.02843C2.048 6.84276 3.23369 6.10689 5.60504 4.63516L8.10504 3.08359C10.6117 1.52786 11.8651 0.75 13.25 0.75C14.6349 0.75 15.8882 1.52786 18.395 3.08359L20.895 4.63515C23.2664 6.10689 24.452 6.84276 25.101 8.02843" stroke="#808080" stroke-width="1.5" stroke-linecap="round"/>
<path d="M17 20.75H9.5" stroke="#808080" stroke-width="1.5" stroke-linecap="round"/>
</svg>
