<svg width="22" height="22" viewBox="0 0 22 22" fill="none" xmlns="http://www.w3.org/2000/svg">
<path d="M1.83301 11C1.83301 7.54299 1.83301 5.81451 2.90695 4.74056C3.9809 3.66663 5.70937 3.66663 9.16634 3.66663H12.833C16.2899 3.66663 18.0185 3.66663 19.0924 4.74056C20.1663 5.81451 20.1663 7.54299 20.1663 11C20.1663 14.4569 20.1663 16.1855 19.0924 17.2593C18.0185 18.3333 16.2899 18.3333 12.833 18.3333H9.16634C5.70937 18.3333 3.9809 18.3333 2.90695 17.2593C1.83301 16.1855 1.83301 14.4569 1.83301 11Z" stroke="black" stroke-width="1.5"/>
<path d="M9.16667 14.6666H5.5" stroke="black" stroke-width="1.5" stroke-linecap="round"/>
<path d="M12.833 14.6666H11.458" stroke="black" stroke-width="1.5" stroke-linecap="round"/>
<path d="M1.83301 9.16663H20.1663" stroke="black" stroke-width="1.5" stroke-linecap="round"/>
</svg>
