<svg width="20" height="20" viewBox="0 0 20 20" fill="none" xmlns="http://www.w3.org/2000/svg">
<path d="M16.875 6.25H3.75C3.0625 6.25 2.5 5.6875 2.5 5C2.5 4.3125 3.0625 3.75 3.75 3.75H6.25C6.625 3.75 6.875 3.5 6.875 3.125C6.875 2.75 6.625 2.5 6.25 2.5H3.75C2.375 2.5 1.25 3.625 1.25 5V15C1.25 16.375 2.375 17.5 3.75 17.5H16.875C17.9375 17.5 18.75 16.6875 18.75 15.625V8.125C18.75 7.0625 17.9375 6.25 16.875 6.25ZM17.5 9.875V13.875C17.3125 13.8125 17.125 13.75 16.875 13.75H14.375C13.3125 13.75 12.5 12.9375 12.5 11.875C12.5 10.8125 13.3125 10 14.375 10H16.875C17.125 10 17.3125 9.9375 17.5 9.875Z" fill="#005900"/>
<path d="M4.375 4.37509C4 4.37509 3.75 4.62509 3.75 5.00009C3.75 5.37509 4 5.62509 4.375 5.62509H6.875H16.25C16.4375 5.62509 16.625 5.50009 16.75 5.37509C16.875 5.18759 16.875 5.00009 16.8125 4.81259L15.5625 1.68759C15.4375 1.37509 15.0625 1.18759 14.75 1.31259L6.75 4.37509H4.375Z" fill="#005900"/>
<path d="M15.625 11.25H14.375C14 11.25 13.75 11.5 13.75 11.875C13.75 12.25 14 12.5 14.375 12.5H15.625C16 12.5 16.25 12.25 16.25 11.875C16.25 11.5 16 11.25 15.625 11.25Z" fill="#005900"/>
</svg>
