<svg width="15" height="15" viewBox="0 0 15 15" fill="none" xmlns="http://www.w3.org/2000/svg">
<g clip-path="url(#clip0_896_858)">
<path fill-rule="evenodd" clip-rule="evenodd" d="M12.5 13.4375H13.75V4.46493L7.5 1.62403L1.25 4.46493V13.4375H2.5V6.56249C2.5 6.21731 2.77982 5.93749 3.125 5.93749H11.875C12.2202 5.93749 12.5 6.21731 12.5 6.56249V13.4375ZM11.25 13.4375V7.18749H3.75V13.4375H11.25ZM0.625 14.6875C0.279822 14.6875 0 14.4077 0 14.0625V4.46493C0 3.97476 0.286504 3.52981 0.732744 3.32698L6.98275 0.486069C7.31138 0.336675 7.68862 0.336675 8.01725 0.486069L14.2673 3.32698C14.7135 3.52981 15 3.97476 15 4.46493V14.0625C15 14.4077 14.7202 14.6875 14.375 14.6875H0.625ZM3.75 8.43749H11.25V9.68749H3.75V8.43749ZM3.75 10.9375H11.25V12.1875H3.75V10.9375Z" fill="black"/>
</g>
<defs>
<clipPath id="clip0_896_858">
<rect width="15" height="15" fill="white"/>
</clipPath>
</defs>
</svg>
