<svg width="15" height="15" viewBox="0 0 15 15" fill="none" xmlns="http://www.w3.org/2000/svg">
<g clip-path="url(#clip0_896_865)">
<path d="M3.75875 5.00383C3.83017 4.439 4.56423 3.67134 5.1468 3.75652L5.14587 3.75559C5.71282 3.86333 6.16162 4.83913 6.41469 5.27791C6.594 5.59626 6.47756 5.91881 6.31031 6.05492C6.08469 6.23677 5.73187 6.48769 5.80589 6.73962C5.9375 7.1875 7.5 8.75 8.2685 9.19419C8.55938 9.36231 8.77031 8.91887 8.95044 8.69169C9.08131 8.51694 9.40413 8.4125 9.72175 8.585C10.1961 8.86125 10.643 9.18231 11.0563 9.54375C11.2626 9.71625 11.3111 9.97119 11.1681 10.2406C10.9162 10.7152 10.1877 11.341 9.65888 11.2138C8.73525 10.9917 5 9.54375 3.80021 5.34876C3.73273 5.1503 3.74972 5.07528 3.75875 5.00383Z" fill="#0F0F0F"/>
<path fill-rule="evenodd" clip-rule="evenodd" d="M7.5 14.375C6.73525 14.375 6.31213 14.2929 5.625 14.0625L4.30902 14.7205C3.47789 15.1361 2.5 14.5317 2.5 13.6024V12.1875C1.15409 10.9325 0.625 9.48544 0.625 7.5C0.625 3.70304 3.70304 0.625 7.5 0.625C11.2969 0.625 14.375 3.70304 14.375 7.5C14.375 11.2969 11.2969 14.375 7.5 14.375ZM3.75 11.6439L3.35247 11.2732C2.30679 10.2982 1.875 9.20819 1.875 7.5C1.875 4.3934 4.3934 1.875 7.5 1.875C10.6066 1.875 13.125 4.3934 13.125 7.5C13.125 10.6066 10.6066 13.125 7.5 13.125C6.88394 13.125 6.595 13.0694 6.02247 12.8774L5.53029 12.7123L3.75 13.6024V11.6439Z" fill="#0F0F0F"/>
</g>
<defs>
<clipPath id="clip0_896_865">
<rect width="15" height="15" fill="white"/>
</clipPath>
</defs>
</svg>
