<svg width="30" height="30" viewBox="0 0 30 30" fill="none" xmlns="http://www.w3.org/2000/svg">
<path d="M15 5.30762C17.6758 5.30762 20.1001 6.3916 21.853 8.14697C23.606 9.8999 24.6924 12.3242 24.6924 15C24.6924 17.6758 23.6084 20.1001 21.853 21.853C20.1001 23.606 17.6758 24.6924 15 24.6924C12.3242 24.6924 9.8999 23.6084 8.14697 21.853C6.39404 20.1001 5.30762 17.6758 5.30762 15C5.30762 12.3242 6.3916 9.8999 8.14697 8.14697C9.8999 6.39404 12.3242 5.30762 15 5.30762ZM15 0C19.1431 0 22.8931 1.67969 25.6055 4.39453C28.3203 7.10938 30 10.8594 30 15C30 19.1431 28.3203 22.8931 25.6055 25.6055C22.8906 28.3203 19.1406 30 15 30C10.8569 30 7.10693 28.3203 4.39453 25.6055C1.67969 22.8931 0 19.1431 0 15C0 10.8569 1.67969 7.10693 4.39453 4.39453C7.10693 1.67969 10.8569 0 15 0ZM22.8198 7.18018C20.8179 5.17822 18.0542 3.94043 15 3.94043C11.9458 3.94043 9.18213 5.17822 7.18018 7.18018C5.17822 9.18213 3.94043 11.9458 3.94043 15C3.94043 18.0542 5.17822 20.8179 7.18018 22.8198C9.18213 24.8218 11.9458 26.0596 15 26.0596C18.0542 26.0596 20.8179 24.8218 22.8198 22.8198C24.8218 20.8179 26.0596 18.0542 26.0596 15C26.0596 11.9458 24.8218 9.18213 22.8198 7.18018ZM15.979 13.8599C15.73 13.6108 15.3857 13.457 15 13.457C14.6167 13.457 14.27 13.6108 14.021 13.8599L14.0186 13.8623C13.7695 14.1113 13.6157 14.4556 13.6157 14.8413C13.6157 15.2246 13.7695 15.5713 14.0186 15.8203L14.021 15.8228C14.27 16.0718 14.6143 16.2256 15 16.2256C15.3833 16.2256 15.73 16.0718 15.979 15.8228L15.9814 15.8203C16.2305 15.5713 16.3843 15.2246 16.3843 14.8413C16.3818 14.4556 16.228 14.1113 15.979 13.8599ZM15.8838 12.3999C16.2427 12.5317 16.5674 12.7393 16.8335 13.0054C16.9238 13.0957 17.0093 13.1934 17.085 13.2983L17.1094 13.291L22.2412 11.9165C21.8433 10.9814 21.2695 10.1392 20.5615 9.43359C19.3335 8.20557 17.7002 7.38037 15.8813 7.17773V12.334C15.8862 12.356 15.8862 12.3779 15.8838 12.3999ZM17.5879 15.0464C17.5537 15.4688 17.4194 15.8643 17.2046 16.2085C17.2168 16.2231 17.2266 16.2402 17.2363 16.2573L20.1831 20.9277C20.3149 20.813 20.4419 20.6934 20.5664 20.5688C21.9897 19.1455 22.8711 17.1753 22.8711 15.0024C22.8711 14.5459 22.832 14.0991 22.7563 13.6621L17.5879 15.0464ZM15.7642 17.3218C15.5225 17.3975 15.2661 17.4365 15 17.4365C14.7607 17.4365 14.5288 17.4048 14.3066 17.3438L11.4307 22.019C12.5024 22.5659 13.7158 22.8735 15 22.8735C16.333 22.8735 17.5879 22.5415 18.689 21.958L15.7642 17.3218ZM12.8345 16.2695C12.6099 15.9326 12.4634 15.5396 12.4194 15.1196H12.417L7.26807 13.5083C7.17529 13.9917 7.12647 14.4897 7.12647 15C7.12647 17.1729 8.00781 19.1431 9.43115 20.5664C9.58496 20.7202 9.74609 20.8691 9.91455 21.0107L12.7954 16.3257C12.8101 16.3086 12.8223 16.2891 12.8345 16.2695ZM12.8711 13.3594C12.959 13.2349 13.0566 13.1152 13.1665 13.0078C13.4229 12.7539 13.7305 12.5513 14.0723 12.4194C14.0698 12.3926 14.0674 12.3633 14.0674 12.3364V7.18506C12.2656 7.39746 10.6494 8.21777 9.43359 9.43604C8.76221 10.1074 8.21045 10.9009 7.81494 11.7798L12.8711 13.3594Z" fill="#0F0F0F"/>
</svg>
